HIERARCHY
ROOT Hips
{
  OFFSET 4.54636 93.7863 -4.11837
  CHANNELS 6 Xposition Yposition Zposition Zrotation Xrotation Yrotation
  JOINT LeftUpLeg
  {
    OFFSET 8.64259 1.95398 -2.38835
    CHANNELS 6 Xposition Yposition Zposition Zrotation Xrotation Yrotation
    JOINT LeftLeg
    {
      OFFSET 43.7702 0 0
      CHANNELS 6 Xposition Yposition Zposition Zrotation Xrotation Yrotation
      JOINT LeftFoot
      {
        OFFSET 40.6238 0 0
        CHANNELS 6 Xposition Yposition Zposition Zrotation Xrotation Yrotation
        JOINT LeftToeBase
        {
          OFFSET 12.7242 0 0
          CHANNELS 6 Xposition Yposition Zposition Zrotation Xrotation Yrotation
          End Site
          {
            OFFSET 0 0 0
          }
        }
      }
    }
  }
  JOINT RightUpLeg
  {
    OFFSET -8.2249 1.95398 -2.59336
    CHANNELS 6 Xposition Yposition Zposition Zrotation Xrotation Yrotation
    JOINT RightLeg
    {
      OFFSET 43.5653 0 0
      CHANNELS 6 Xposition Yposition Zposition Zrotation Xrotation Yrotation
      JOINT RightFoot
      {
        OFFSET 40.6238 0 0
        CHANNELS 6 Xposition Yposition Zposition Zrotation Xrotation Yrotation
        JOINT RightToeBase
        {
          OFFSET 12.7242 0 0
          CHANNELS 6 Xposition Yposition Zposition Zrotation Xrotation Yrotation
          End Site
          {
            OFFSET 0 0 0
          }
        }
      }
    }
  }
  JOINT Spine
  {
    OFFSET 0.165834 0.87714 6.61349
    CHANNELS 6 Xposition Yposition Zposition Zrotation Xrotation Yrotation
    JOINT Spine1
    {
      OFFSET 7.38963 1.71661e-005 0
      CHANNELS 6 Xposition Yposition Zposition Zrotation Xrotation Yrotation
      JOINT Spine2
      {
        OFFSET 11.9445 1.14441e-005 0
        CHANNELS 6 Xposition Yposition Zposition Zrotation Xrotation Yrotation
        JOINT Spine3
        {
          OFFSET 14.7254 4.19617e-005 0
          CHANNELS 6 Xposition Yposition Zposition Zrotation Xrotation Yrotation
          JOINT Spine4
          {
            OFFSET 10.9679 0 0
            CHANNELS 6 Xposition Yposition Zposition Zrotation Xrotation Yrotation
            JOINT RightShoulder
            {
              OFFSET 2.46616 -1.6653 3.69651
              CHANNELS 6 Xposition Yposition Zposition Zrotation Xrotation Yrotation
              JOINT RightArm
              {
                OFFSET 13.0012 0 0
                CHANNELS 6 Xposition Yposition Zposition Zrotation Xrotation Yrotation
                JOINT RightForeArm
                {
                  OFFSET 28.7848 1.52588e-005 0
                  CHANNELS 6 Xposition Yposition Zposition Zrotation Xrotation Yrotation
                  JOINT RightHand
                  {
                    OFFSET 26.5688 1.52588e-005 0
                    CHANNELS 6 Xposition Yposition Zposition Zrotation Xrotation Yrotation
                    JOINT RightHandMiddle1
                    {
                      OFFSET 8.03675 -0.886581 0.727868
                      CHANNELS 6 Xposition Yposition Zposition Zrotation Xrotation Yrotation
                      JOINT RightHandMiddle2
                      {
                        OFFSET 2.78833 0 0
                        CHANNELS 6 Xposition Yposition Zposition Zrotation Xrotation Yrotation
                        JOINT RightHandMiddle3
                        {
                          OFFSET 2.41155 0 0
                          CHANNELS 6 Xposition Yposition Zposition Zrotation Xrotation Yrotation
                          End Site
                          {
                            OFFSET 0 0 0
                          }
                        }
                      }
                    }
                    JOINT RightHandRing1
                    {
                      OFFSET 7.97966 -0.886765 -1.00486
                      CHANNELS 6 Xposition Yposition Zposition Zrotation Xrotation Yrotation
                      JOINT RightHandRing2
                      {
                        OFFSET 2.86368 0 0
                        CHANNELS 6 Xposition Yposition Zposition Zrotation Xrotation Yrotation
                        JOINT RightHandRing3
                        {
                          OFFSET 2.11079 0 0
                          CHANNELS 6 Xposition Yposition Zposition Zrotation Xrotation Yrotation
                          End Site
                          {
                            OFFSET 0 0 0
                          }
                        }
                      }
                    }
                    JOINT RightHandPinky1
                    {
                      OFFSET 8.03707 -0.887528 -2.60696
                      CHANNELS 6 Xposition Yposition Zposition Zrotation Xrotation Yrotation
                      JOINT RightHandPinky2
                      {
                        OFFSET 1.84627 0 0
                        CHANNELS 6 Xposition Yposition Zposition Zrotation Xrotation Yrotation
                        JOINT RightHandPinky3
                        {
                          OFFSET 1.88434 0 0
                          CHANNELS 6 Xposition Yposition Zposition Zrotation Xrotation Yrotation
                          End Site
                          {
                            OFFSET 0 0 0
                          }
                        }
                      }
                    }
                    JOINT RightHandIndex1
                    {
                      OFFSET 7.92262 -0.885498 2.31175
                      CHANNELS 6 Xposition Yposition Zposition Zrotation Xrotation Yrotation
                      JOINT RightHandIndex2
                      {
                        OFFSET 2.63761 0 0
                        CHANNELS 6 Xposition Yposition Zposition Zrotation Xrotation Yrotation
                        JOINT RightHandIndex3
                        {
                          OFFSET 2.16656 0 0
                          CHANNELS 6 Xposition Yposition Zposition Zrotation Xrotation Yrotation
                          End Site
                          {
                            OFFSET 0 0 0
                          }
                        }
                      }
                    }
                    JOINT RightHandThumb1
                    {
                      OFFSET 3.4769 0.0597992 2.88789
                      CHANNELS 6 Xposition Yposition Zposition Zrotation Xrotation Yrotation
                      JOINT RightHandThumb2
                      {
                        OFFSET 2.77686 9.72748e-005 -1.52588e-005
                        CHANNELS 6 Xposition Yposition Zposition Zrotation Xrotation Yrotation
                        JOINT RightHandThumb3
                        {
                          OFFSET 2.42058 -9.15528e-005 0
                          CHANNELS 6 Xposition Yposition Zposition Zrotation Xrotation Yrotation
                          End Site
                          {
                            OFFSET 0 0 0
                          }
                        }
                      }
                    }
                  }
                }
              }
            }
            JOINT LeftShoulder
            {
              OFFSET 2.38034 -1.29275 -3.7523
              CHANNELS 6 Xposition Yposition Zposition Zrotation Xrotation Yrotation
              JOINT LeftArm
              {
                OFFSET 16.3182 6.10352e-005 0
                CHANNELS 6 Xposition Yposition Zposition Zrotation Xrotation Yrotation
                JOINT LeftForeArm
                {
                  OFFSET 27.0901 0 0
                  CHANNELS 6 Xposition Yposition Zposition Zrotation Xrotation Yrotation
                  JOINT LeftHand
                  {
                    OFFSET 24.5451 1.52588e-005 0
                    CHANNELS 6 Xposition Yposition Zposition Zrotation Xrotation Yrotation
                    JOINT LeftHandMiddle1
                    {
                      OFFSET 9.21802 0.665817 0.545532
                      CHANNELS 6 Xposition Yposition Zposition Zrotation Xrotation Yrotation
                      JOINT LeftHandMiddle2
                      {
                        OFFSET 2.66255 0 0
                        CHANNELS 6 Xposition Yposition Zposition Zrotation Xrotation Yrotation
                        JOINT LeftHandMiddle3
                        {
                          OFFSET 2.2804 0 0
                          CHANNELS 6 Xposition Yposition Zposition Zrotation Xrotation Yrotation
                          End Site
                          {
                            OFFSET 0 0 0
                          }
                        }
                      }
                    }
                    JOINT LeftHandRing1
                    {
                      OFFSET 9.24775 0.665192 -1.1267
                      CHANNELS 6 Xposition Yposition Zposition Zrotation Xrotation Yrotation
                      JOINT LeftHandRing2
                      {
                        OFFSET 2.47041 0 -1.52588e-005
                        CHANNELS 6 Xposition Yposition Zposition Zrotation Xrotation Yrotation
                        JOINT LeftHandRing3
                        {
                          OFFSET 2.2054 0 0
                          CHANNELS 6 Xposition Yposition Zposition Zrotation Xrotation Yrotation
                          End Site
                          {
                            OFFSET 0 0 0
                          }
                        }
                      }
                    }
                    JOINT LeftHandPinky1
                    {
                      OFFSET 9.35384 0.66301 -2.72332
                      CHANNELS 6 Xposition Yposition Zposition Zrotation Xrotation Yrotation
                      JOINT LeftHandPinky2
                      {
                        OFFSET 1.63407 0 0
                        CHANNELS 6 Xposition Yposition Zposition Zrotation Xrotation Yrotation
                        JOINT LeftHandPinky3
                        {
                          OFFSET 1.71176 0 0
                          CHANNELS 6 Xposition Yposition Zposition Zrotation Xrotation Yrotation
                          End Site
                          {
                            OFFSET 0 0 0
                          }
                        }
                      }
                    }
                    JOINT LeftHandIndex1
                    {
                      OFFSET 8.73161 0.675903 2.06801
                      CHANNELS 6 Xposition Yposition Zposition Zrotation Xrotation Yrotation
                      JOINT LeftHandIndex2
                      {
                        OFFSET 2.66689 0 0
                        CHANNELS 6 Xposition Yposition Zposition Zrotation Xrotation Yrotation
                        JOINT LeftHandIndex3
                        {
                          OFFSET 2.12946 0 1.52588e-005
                          CHANNELS 6 Xposition Yposition Zposition Zrotation Xrotation Yrotation
                          End Site
                          {
                            OFFSET 0 0 0
                          }
                        }
                      }
                    }
                    JOINT LeftHandThumb1
                    {
                      OFFSET 4.96736 -0.62265 3.39586
                      CHANNELS 6 Xposition Yposition Zposition Zrotation Xrotation Yrotation
                      JOINT LeftHandThumb2
                      {
                        OFFSET 2.15386 1.52588e-005 0
                        CHANNELS 6 Xposition Yposition Zposition Zrotation Xrotation Yrotation
                        JOINT LeftHandThumb3
                        {
                          OFFSET 2.19511 -3.43323e-005 1.52588e-005
                          CHANNELS 6 Xposition Yposition Zposition Zrotation Xrotation Yrotation
                          End Site
                          {
                            OFFSET 0 0 0
                          }
                        }
                      }
                    }
                  }
                }
              }
            }
            JOINT Neck
            {
              OFFSET 5.0226 -0.0266342 0
              CHANNELS 6 Xposition Yposition Zposition Zrotation Xrotation Yrotation
              JOINT Head
              {
                OFFSET 6.69364 2.86102e-005 0
                CHANNELS 6 Xposition Yposition Zposition Zrotation Xrotation Yrotation
                End Site
                {
                  OFFSET 0 0 0
                }
              }
            }
          }
        }
      }
    }
  }
}
MOTION
Frames:	4
Frame Time:	0.0333333
40.6508 95.8939 82.4796 89.3287 -5.8267 89.3597 8.64259 1.95398 -2.38835 -177.426 25.2214 101.188 43.7702 7.03335e-006 0 -4.13895 -11.1311 -0.631436 40.6238 1.43051e-006 9.53674e-007 24.7492 -1.31523 -3.16516 12.7242 2.38419e-006 9.53674e-007 28.7808 3.66588e-006 1.6696e-006 -8.2249 1.95398 -2.59336 177.602 17.2511 84.8147 43.5653 7.27177e-006 0 -27.291 29.3725 2.24444 40.6238 2.38419e-006 9.53674e-007 37.975 17.4954 16.5601 12.7242 -4.76837e-007 -1.42109e-014 28.7808 1.65427e-005 2.61978e-005 0.165834 0.87714 6.61349 -0.270927 7.62454 -93.5878 7.38963 1.71661e-005 -9.72809e-008 11.705 -3.77294 -0.299568 11.9445 1.14441e-005 6.65395e-008 0.0395995 -3.78421 -0.131385 14.7254 4.19617e-005 8.195e-008 -22.5352 -3.5049 -1.42862 10.9679 -9.53674e-006 5.82672e-008 -2.52254 -3.50496 -1.42867 2.46616 -1.6653 3.69651 119.481 -71.4727 -60.9581 13.0012 0 7.10543e-015 -1.21772 25.2184 -10.2574 28.7848 1.52588e-005 -1.19209e-007 13.9125 80.9626 -20.203 26.5688 1.52588e-005 4.76837e-007 -20.9543 6.84621 -42.0775 8.03675 -0.886581 0.727868 -89.4039 88.9709 89.0936 2.78833 2.38419e-007 7.10543e-015 -0.0604872 1.02386e-005 -7.42469e-007 2.41155 1.42109e-014 0 -0.0639202 -1.04139e-005 -5.3626e-007 7.97966 -0.886765 -1.00486 -89.3948 88.981 89.0846 2.86368 0 0 -1.15742 -1.0306e-005 1.0542e-007 2.11079 1.42109e-014 1.42109e-014 2.576 3.28377e-006 -1.07887e-006 8.03707 -0.887528 -2.60696 -88.8559 89.3579 88.5457 1.84627 -1.42109e-014 7.10543e-015 -1.14578 6.70875e-006 0.000163849 1.88434 1.42109e-014 -1.42109e-014 1.14577 3.34429e-006 -7.15275e-007 7.92262 -0.885498 2.31175 -89.4226 88.9487 89.1123 2.63761 4.76837e-007 0 0.409286 3.03194e-006 0.000614572 2.16656 -2.38419e-007 -7.10543e-015 -0.636601 -1.03373e-005 2.59918e-009 3.4769 0.0597992 2.88789 104.364 40.5023 -88.8246 2.77686 9.72748e-005 -1.52588e-005 -7.66903 0.186167 -1.35044 2.42058 -9.15528e-005 -7.10543e-015 -11.2634 8.91552e-006 7.05192e-005 2.38034 -1.29275 -3.7523 -84.1845 -14.09 80.5741 16.3182 6.10352e-005 1.19209e-007 -20.0513 -14.1237 -63.1637 27.0901 -1.42109e-014 0 178.064 48.0457 -179.202 24.5451 1.52588e-005 2.84217e-014 65.9005 -23.4117 -38.2036 9.21802 0.665817 0.545532 -91.1873 -87.8289 -89.9988 2.66255 0 -7.10543e-015 3.40888 1.59988e-005 0.0036011 2.2804 0 0 -0.954861 -5.32817e-006 1.29074e-006 9.24775 0.665192 -1.1267 -91.1871 -89.4015 -89.9985 2.47041 -4.76837e-007 -1.52588e-005 2.85637 -2.2568e-006 0.00271613 2.2054 -2.84217e-014 -1.42109e-014 -3.16844 9.52776e-006 6.84112e-007 9.35384 0.66301 -2.72332 88.8084 -89.717 89.9969 1.63407 -4.76837e-007 0 2.54481 -5.54176e-006 0.00273879 1.71176 -2.84217e-014 0 -2.54482 9.54577e-006 1.17571e-006 8.73161 0.675903 2.06801 -91.1884 -86.1973 -89.9999 2.66689 -9.53674e-007 -7.10543e-015 6.13104 5.64109e-006 0.00674487 2.12946 1.04308e-007 1.52588e-005 -2.04542 4.73982e-007 -5.14194e-007 4.96736 -0.62265 3.39586 -101.949 -40.7242 -90.0694 2.15386 1.52588e-005 -7.10543e-015 10.0172 3.04845e-005 1.17425e-006 2.19511 -3.43323e-005 1.52588e-005 -2.66977 -8.39195e-006 2.11148e-006 5.0226 -0.0266342 -9.09495e-013 53.3378 16.0385 -22.1836 6.69364 2.86102e-005 -1.09447e-007 -39.4668 19 29.5462 
43.6959 91.6446 82.1838 90.2402 -0.27295 89.8784 8.64259 1.95398 -2.38835 -176.838 30.1486 103.023 43.7702 7.03335e-006 0 -4.05346 -8.46701 -0.461726 40.6238 1.43051e-006 9.53674e-007 20.2141 -0.280232 -2.23562 12.7242 2.38419e-006 9.53674e-007 28.7808 3.66588e-006 1.6696e-006 -8.2249 1.95398 -2.59336 179.753 22.5617 83.9363 43.5653 7.27177e-006 0 -47.7458 25.8696 1.85724 40.6238 2.38419e-006 9.53674e-007 50.5528 22.7552 17.0675 12.7242 -4.76837e-007 -1.42109e-014 28.7808 1.65427e-005 2.61978e-005 0.165834 0.87714 6.61349 -0.388445 7.74176 -93.1194 7.38963 1.71661e-005 -9.72809e-008 11.4226 -3.80639 -0.970987 11.9445 1.14441e-005 6.65395e-008 -0.242922 -3.84259 -0.802546 14.7254 4.19617e-005 8.195e-008 -22.8117 -3.33515 -2.06935 10.9679 -9.53674e-006 5.82672e-008 -2.79905 -3.3352 -2.06937 2.46616 -1.6653 3.69651 114.571 -61.7427 -65.2022 13.0012 0 0 4.30638 23.8656 -3.77453 28.7848 1.52588e-005 -1.19209e-007 57.496 77.0727 -64.2119 26.5688 1.52588e-005 4.76837e-007 -24.1166 8.1929 -43.1823 8.03675 -0.886581 0.727868 -89.4039 88.9709 89.0936 2.78833 2.38419e-007 0 -0.0604872 1.02386e-005 -7.42469e-007 2.41155 0 0 -0.0639202 -1.04139e-005 -5.3626e-007 7.97966 -0.886765 -1.00486 -89.3948 88.981 89.0846 2.86368 1.42109e-014 1.42109e-014 -1.15742 -1.0306e-005 1.0542e-007 2.11079 0 0 2.576 3.28377e-006 -1.07887e-006 8.03707 -0.887528 -2.60696 -88.8559 89.3579 88.5457 1.84627 0 1.42109e-014 -1.14578 6.70875e-006 0.000163849 1.88434 -2.84217e-014 0 1.14577 3.34429e-006 -7.15275e-007 7.92262 -0.885498 2.31175 -89.4226 88.9487 89.1123 2.63761 4.76837e-007 0 0.409286 3.03194e-006 0.000614572 2.16656 -2.38419e-007 0 -0.636601 -1.03373e-005 2.59918e-009 3.4769 0.0597992 2.88789 104.364 40.5023 -88.8246 2.77686 9.72748e-005 -1.52588e-005 -7.66903 0.186167 -1.35044 2.42058 -9.15528e-005 0 -11.2634 8.91552e-006 7.05192e-005 2.38034 -1.29275 -3.7523 -83.4165 -14.7151 82.7159 16.3182 6.10352e-005 1.19209e-007 -16.3216 -18.347 -65.8925 27.0901 2.84217e-014 0 177.08 57.8233 -178.209 24.5451 1.52588e-005 2.84217e-014 39.2089 -14.768 -41.5981 9.21802 0.665817 0.545532 -91.1873 -87.8289 -89.9988 2.66255 0 7.10543e-015 3.40888 1.59988e-005 0.0036011 2.2804 -2.84217e-014 -7.10543e-015 -0.954861 -5.32817e-006 1.29074e-006 9.24775 0.665192 -1.1267 -91.1871 -89.4015 -89.9985 2.47041 -4.76837e-007 -1.52588e-005 2.85637 -2.2568e-006 0.00271613 2.2054 2.84217e-014 1.42109e-014 -3.16844 9.52776e-006 6.84112e-007 9.35384 0.66301 -2.72332 88.8084 -89.717 89.9969 1.63407 -4.76837e-007 0 2.54481 -5.54176e-006 0.00273879 1.71176 -2.84217e-014 7.10543e-015 -2.54482 9.54577e-006 1.17571e-006 8.73161 0.675903 2.06801 -91.1884 -86.1973 -89.9999 2.66689 -9.53674e-007 7.10543e-015 6.13104 5.64109e-006 0.00674487 2.12946 1.04308e-007 1.52588e-005 -2.04542 4.73982e-007 -5.14194e-007 4.96736 -0.62265 3.39586 -101.949 -40.7242 -90.0694 2.15386 1.52588e-005 -7.10543e-015 10.0172 3.04845e-005 1.17425e-006 2.19511 -3.43323e-005 1.52588e-005 -2.66977 -8.39195e-006 2.11148e-006 5.0226 -0.0266342 -9.166e-013 45.3587 21.7486 -12.3459 6.69364 2.86102e-005 -1.09447e-007 -29.4242 21.061 25.4238 
46.5906 88.5491 81.668 90.1639 3.18703 95.6507 8.64259 1.95398 -2.38835 -175.695 36.6011 108.129 43.7702 7.03335e-006 -1.42109e-014 -3.8559 -0.153493 0.030951 40.6238 1.43051e-006 9.53674e-007 15.0834 -0.554301 -3.05197 12.7242 2.38419e-006 9.53674e-007 28.7808 3.66588e-006 1.6696e-006 -8.2249 1.95398 -2.59336 179.613 21.6484 90.584 43.5653 7.27177e-006 0 -52.5266 33.6241 2.32429 40.6238 2.38419e-006 9.53674e-007 56.5544 27.2662 18.139 12.7242 -4.76837e-007 7.10543e-015 28.7808 1.65427e-005 2.61978e-005 0.165834 0.87714 6.61349 -0.134863 7.93726 -93.4366 7.38963 1.71661e-005 -9.72809e-008 10.9758 -3.53145 -2.74657 11.9445 1.14441e-005 6.65395e-008 -0.693024 -3.64899 -2.58848 14.7254 4.19617e-005 8.195e-008 -23.2272 -2.54264 -3.68034 10.9679 -9.53674e-006 5.82672e-008 -3.21459 -2.54266 -3.68037 2.46616 -1.6653 3.69651 113.51 -52.0677 -64.8379 13.0012 0 7.10543e-015 12.0372 21.874 0.344571 28.7848 1.52588e-005 -1.19209e-007 78.3014 66.6876 -85.0681 26.5688 1.52588e-005 4.76837e-007 -29.5113 10.9336 -45.8806 8.03675 -0.886581 0.727868 -89.4039 88.9709 89.0936 2.78833 2.38419e-007 0 -0.0604872 1.02386e-005 -7.42469e-007 2.41155 -1.42109e-014 1.42109e-014 -0.0639202 -1.04139e-005 -5.3626e-007 7.97966 -0.886765 -1.00486 -89.3948 88.981 89.0846 2.86368 -1.42109e-014 0 -1.15742 -1.0306e-005 1.0542e-007 2.11079 0 -1.42109e-014 2.576 3.28377e-006 -1.07887e-006 8.03707 -0.887528 -2.60696 -88.8559 89.3579 88.5457 1.84627 1.42109e-014 -1.42109e-014 -1.14578 6.70875e-006 0.000163849 1.88434 0 0 1.14577 3.34429e-006 -7.15275e-007 7.92262 -0.885498 2.31175 -89.4226 88.9487 89.1123 2.63761 4.76837e-007 0 0.409286 3.03194e-006 0.000614572 2.16656 -2.38419e-007 0 -0.636601 -1.03373e-005 2.59917e-009 3.4769 0.0597992 2.88789 104.364 40.5023 -88.8246 2.77686 9.72748e-005 -1.52588e-005 -7.66903 0.186167 -1.35044 2.42058 -9.15528e-005 1.42109e-014 -11.2634 8.91552e-006 7.05192e-005 2.38034 -1.29275 -3.7523 -83.261 -14.0261 82.8834 16.3182 6.10352e-005 1.19209e-007 -13.2982 -21.5674 -65.3279 27.0901 0 -2.84217e-014 175.094 68.1855 -176.219 24.5451 1.52588e-005 2.84217e-014 19.0823 -6.69796 -38.4164 9.21802 0.665817 0.545532 -91.1873 -87.8289 -89.9988 2.66255 2.84217e-014 -7.10543e-015 3.40888 1.59988e-005 0.0036011 2.2804 0 7.10543e-015 -0.954861 -5.32817e-006 1.29074e-006 9.24775 0.665192 -1.1267 -91.1871 -89.4015 -89.9985 2.47041 -4.76837e-007 -1.52588e-005 2.85637 -2.2568e-006 0.00271613 2.2054 0 0 -3.16844 9.52776e-006 6.84112e-007 9.35384 0.66301 -2.72332 88.8084 -89.717 89.9969 1.63407 -4.76837e-007 -7.10543e-015 2.54481 -5.54176e-006 0.00273879 1.71176 2.84217e-014 7.10543e-015 -2.54482 9.54577e-006 1.17571e-006 8.73161 0.675903 2.06801 -91.1884 -86.1973 -89.9999 2.66689 -9.53674e-007 0 6.13104 5.64109e-006 0.00674487 2.12946 1.04308e-007 1.52588e-005 -2.04542 4.73982e-007 -5.14194e-007 4.96736 -0.62265 3.39586 -101.949 -40.7242 -90.0694 2.15386 1.52588e-005 0 10.0172 3.04845e-005 1.17425e-006 2.19511 -3.43323e-005 1.52588e-005 -2.66977 -8.39195e-006 2.11148e-006 5.0226 -0.0266342 -9.09495e-013 40.9759 24.072 -7.71144 6.69364 2.86102e-005 -1.09447e-007 -24.1205 22.0003 24.5595 
50.4296 86.6861 80.3152 90.5252 6.13415 98.3706 8.64259 1.95398 -2.38835 -175.835 39.9409 110.114 43.7702 7.03335e-006 0 -3.80311 3.08672 0.217773 40.6238 1.43051e-006 9.53674e-007 4.80105 -5.11107 -11.4407 12.7242 2.38419e-006 9.53674e-007 28.7808 3.66588e-006 1.6696e-006 -8.2249 1.95398 -2.59336 179.566 18.4553 93.191 43.5653 7.27177e-006 0 -54.5293 35.8999 2.5345 40.6238 2.38419e-006 9.53674e-007 60.1679 31.1812 19.3061 12.7242 -4.76837e-007 0 28.7808 1.65427e-005 2.61978e-005 0.165834 0.87714 6.61349 0.200266 8.14657 -93.7952 7.38963 1.71661e-005 -9.72809e-008 10.5267 -3.27807 -3.45439 11.9445 1.14441e-005 6.65395e-008 -1.14426 -3.4253 -3.30659 14.7254 4.19617e-005 8.195e-008 -23.6586 -2.10006 -4.28066 10.9679 -9.53674e-006 5.82672e-008 -3.64598 -2.10007 -4.28069 2.46616 -1.6653 3.69651 113.646 -53.1758 -64.8586 13.0012 2.84217e-014 0 8.55074 24.7743 1.94558 28.7848 1.52588e-005 -1.19209e-007 84.146 60.3321 -90.5668 26.5688 1.52588e-005 4.76837e-007 -29.7249 11.3404 -47.1513 8.03675 -0.886581 0.727868 -89.4039 88.9709 89.0936 2.78833 2.38419e-007 0 -0.0604872 1.02386e-005 -7.42469e-007 2.41155 0 1.42109e-014 -0.0639202 -1.04139e-005 -5.3626e-007 7.97966 -0.886765 -1.00486 -89.3948 88.981 89.0846 2.86368 -1.42109e-014 -1.42109e-014 -1.15742 -1.0306e-005 1.0542e-007 2.11079 1.42109e-014 0 2.576 3.28377e-006 -1.07887e-006 8.03707 -0.887528 -2.60696 -88.8559 89.3579 88.5457 1.84627 0 1.42109e-014 -1.14578 6.70875e-006 0.000163849 1.88434 1.42109e-014 1.42109e-014 1.14577 3.34429e-006 -7.15275e-007 7.92262 -0.885498 2.31175 -89.4226 88.9487 89.1123 2.63761 4.76837e-007 -1.42109e-014 0.409286 3.03194e-006 0.000614572 2.16656 -2.38419e-007 0 -0.636601 -1.03373e-005 2.59917e-009 3.4769 0.0597992 2.88789 104.364 40.5023 -88.8246 2.77686 9.72748e-005 -1.52588e-005 -7.66903 0.186167 -1.35044 2.42058 -9.15528e-005 0 -11.2634 8.91552e-006 7.05192e-005 2.38034 -1.29275 -3.7523 -83.1126 -11.6673 82.5868 16.3182 6.10352e-005 1.19209e-007 -10.4014 -24.3395 -61.1639 27.0901 0 0 172.439 74.7778 -173.558 24.5451 1.52588e-005 2.84217e-014 15.4639 -5.12512 -35.6463 9.21802 0.665817 0.545532 -91.1873 -87.8289 -89.9988 2.66255 2.84217e-014 0 3.40888 1.59988e-005 0.0036011 2.2804 -2.84217e-014 0 -0.954861 -5.32817e-006 1.29074e-006 9.24775 0.665192 -1.1267 -91.1871 -89.4015 -89.9985 2.47041 -4.76837e-007 -1.52588e-005 2.85637 -2.2568e-006 0.00271613 2.2054 0 -1.42109e-014 -3.16844 9.52776e-006 6.84112e-007 9.35384 0.66301 -2.72332 88.8084 -89.717 89.9969 1.63407 -4.76837e-007 0 2.54481 -5.54176e-006 0.00273879 1.71176 0 0 -2.54482 9.54577e-006 1.17571e-006 8.73161 0.675903 2.06801 -91.1884 -86.1973 -89.9999 2.66689 -9.53674e-007 0 6.13104 5.64109e-006 0.00674487 2.12946 1.04308e-007 1.52588e-005 -2.04542 4.73982e-007 -5.14194e-007 4.96736 -0.62265 3.39586 -101.949 -40.7242 -90.0694 2.15386 1.52588e-005 0 10.0172 3.04845e-005 1.17425e-006 2.19511 -3.43323e-005 1.52588e-005 -2.66977 -8.39195e-006 2.11148e-006 5.0226 -0.0266342 -9.09495e-013 44.0948 22.9533 -12.2521 6.69364 2.86102e-005 -1.09447e-007 -28.2277 21.2848 30.0011 
